<svg xmlns="http://www.w3.org/2000/svg" width="22.563" height="30" viewBox="0 0 22.563 30">
  <g id="layer1" transform="translate(-34.417 -844.776)">
    <path id="path4293-4" d="M40.772,944.19a4.463,4.463,0,0,1-.841-.153c-.126-.05-1.413-.432-2.86-.85s-2.641-.769-2.653-.782c-.036-.036.345-6.432.433-7.275.343-3.266.915-4.866,2.249-6.292a6.377,6.377,0,0,1,4.168-2.079,71.555,71.555,0,0,1,7.205-.079,11.77,11.77,0,0,1,4.406,1.049,4.241,4.241,0,0,1,1.383,1.011c1.425,1.418,2.083,3.383,2.4,7.169.176,2.113.377,6.445.3,6.518a23.976,23.976,0,0,1-3.535.99A81.058,81.058,0,0,1,40.772,944.19Z" transform="translate(0 -69.464)" fill="#e3eb00"/>
    <ellipse id="path4295-9" cx="6.152" cy="5.799" rx="6.152" ry="5.799" transform="translate(39.241 844.776)" fill="#e3eb00"/>
  </g>
</svg>
