<svg xmlns="http://www.w3.org/2000/svg" width="26.093" height="27" viewBox="0 0 26.093 27">
  <path id="_1479847010" data-name="1479847010" d="M43.69,32.19,25.254,35.213a1.7,1.7,0,0,0,.1,2.821l18.033.1v2.519l-19.847-.2c-.806-.5-1.41-2.116-1.612-3.526S23.239,34,23.239,34L20.116,22.216H18.4L18,20h4.332l1.108,3.627,20.653-.1ZM27.067,41.56a2.72,2.72,0,1,1-2.72,2.72A2.72,2.72,0,0,1,27.067,41.56Zm13.3,0a2.72,2.72,0,1,1-2.72,2.72A2.72,2.72,0,0,1,40.366,41.56Z" transform="translate(-18 -20)" fill="#e3eb00" fill-rule="evenodd"/>
</svg>
